<?xml version="1.0" standalone="no"?>
<!DOCTYPE svg PUBLIC "-//W3C//DTD SVG 20010904//EN"
 "http://www.w3.org/TR/2001/REC-SVG-20010904/DTD/svg10.dtd">
<svg version="1.0" xmlns="http://www.w3.org/2000/svg"
 width="1280.000000pt" height="451.000000pt" viewBox="0 0 1280.000000 451.000000"
 preserveAspectRatio="xMidYMid meet">

<g transform="translate(0.000000,451.000000) scale(0.100000,-0.100000)"
fill="#000000" stroke="none">
<path d="M305 4492 c-152 -53 -262 -178 -295 -336 -7 -35 -9 -650 -8 -1936 l3
-1885 36 -76 c59 -123 142 -200 256 -240 55 -19 144 -19 6103 -19 5959 0 6048
0 6103 19 114 40 197 117 256 240 l36 76 3 1885 c1 1286 -1 1901 -8 1936 -28
136 -117 251 -238 311 l-76 38 -6060 2 c-5730 2 -6064 1 -6111 -15z m1209
-180 c-629 -272 -1116 -846 -1282 -1510 -37 -144 -49 -219 -66 -392 -12 -122
-14 -47 -15 783 -1 883 0 920 18 972 32 91 100 161 179 185 15 5 308 9 652 9
l625 1 -111 -48z m10974 22 c59 -29 106 -79 136 -143 21 -46 21 -54 24 -978
l2 -933 -3979 0 -3979 0 -7 93 c-41 558 -256 1048 -630 1436 -208 216 -450
385 -717 502 l-113 49 4606 0 4605 0 52 -26z m-9783 -150 c814 -111 1483 -736
1650 -1541 55 -264 55 -532 0 -797 -121 -582 -503 -1078 -1041 -1350 -1068
-539 -2377 -6 -2758 1124 -137 410 -138 837 -2 1246 252 752 949 1287 1741
1333 140 9 271 4 410 -15z m8585 -3104 l0 -550 -80 0 -80 0 0 33 c0 17 -3 42
-6 55 -6 22 -8 21 -31 -17 -54 -91 -196 -118 -286 -55 -87 62 -134 223 -124
429 12 240 95 366 241 366 83 0 135 -28 177 -96 19 -30 19 -29 19 178 l0 207
85 0 85 0 0 -550z m-4820 489 c72 -15 137 -64 174 -129 27 -48 31 -66 34 -150
3 -78 0 -105 -17 -150 -26 -69 -71 -125 -122 -151 l-40 -20 111 -213 c60 -117
110 -216 110 -220 0 -3 -43 -6 -96 -6 l-95 0 -97 200 -97 199 -102 1 -103 0 0
-200 0 -200 -90 0 -90 0 0 525 0 525 235 0 c131 0 256 -5 285 -11z m1432 -237
c56 -24 94 -61 119 -117 31 -66 27 -73 -43 -82 -35 -4 -66 -8 -71 -8 -4 0 -15
16 -25 35 -21 42 -53 60 -108 60 -58 0 -99 -17 -113 -46 -32 -71 -7 -95 150
-144 111 -35 138 -48 175 -82 55 -51 80 -123 70 -205 -11 -98 -52 -154 -141
-195 -42 -19 -66 -23 -155 -23 -89 1 -112 4 -153 24 -51 25 -92 68 -114 118
-25 61 -20 69 54 83 38 8 68 9 70 4 11 -32 47 -76 69 -84 34 -13 124 -13 163
1 37 13 51 35 51 79 0 64 -13 72 -191 124 -156 46 -204 103 -204 241 0 62 5
89 21 119 27 52 82 96 141 112 66 19 177 12 235 -14z m-718 7 c21 -6 58 -29
82 -51 71 -65 103 -153 119 -320 l7 -68 -212 0 -211 0 7 -57 c9 -78 30 -128
67 -159 26 -22 38 -25 74 -21 48 5 75 25 92 66 l12 27 76 -8 c42 -5 78 -9 79
-11 7 -7 -50 -108 -78 -136 -57 -58 -102 -76 -198 -76 -96 0 -141 16 -196 72
-70 70 -104 181 -104 343 0 261 105 407 295 409 28 1 67 -4 89 -10z m1360 0
c21 -6 58 -29 82 -51 71 -65 103 -153 119 -320 l7 -68 -212 0 -211 0 7 -57 c9
-78 30 -128 67 -159 26 -22 38 -25 74 -21 48 5 75 25 92 66 l12 27 76 -8 c42
-5 78 -9 79 -11 7 -7 -50 -108 -78 -136 -57 -58 -102 -76 -198 -76 -96 0 -141
16 -196 72 -70 70 -104 181 -104 343 0 261 105 407 295 409 28 1 67 -4 89 -10z
m690 5 c13 -5 16 -23 16 -90 l0 -84 -55 1 c-129 3 -155 -68 -155 -422 l0 -219
-80 0 -80 0 -2 325 c-1 179 -3 360 -3 403 l0 77 76 3 76 3 8 -83 8 -83 15 45
c33 101 105 151 176 124z m1150 -5 c21 -6 58 -29 82 -51 71 -65 103 -153 119
-320 l7 -68 -212 0 -211 0 7 -57 c9 -78 30 -128 67 -159 26 -22 38 -25 74 -21
48 5 75 25 92 66 l12 27 76 -8 c42 -5 78 -9 79 -11 7 -7 -50 -108 -78 -136
-57 -58 -102 -76 -198 -76 -96 0 -141 16 -196 72 -70 70 -104 181 -104 343 0
261 105 407 295 409 28 1 67 -4 89 -10z m-926 -31 c5 -18 40 -161 78 -317 46
-190 71 -277 76 -265 4 11 37 138 73 284 36 146 70 280 76 298 l11 32 85 0
c82 0 85 -1 80 -21 -3 -12 -57 -195 -119 -405 l-113 -384 -100 0 -100 0 -113
393 c-61 215 -112 398 -112 405 0 9 24 12 85 12 l84 0 9 -32z"/>
<path d="M9560 3855 l0 -75 80 0 80 0 0 75 0 75 -80 0 -80 0 0 -75z"/>
<path d="M10650 3380 l0 -550 79 0 79 0 4 258 c3 254 3 258 30 314 40 86 108
112 165 64 48 -40 53 -78 53 -370 l0 -266 85 0 85 0 0 293 c0 324 -8 383 -59
447 -88 109 -245 99 -320 -19 -16 -26 -31 -53 -34 -61 -3 -8 -6 87 -6 213 l-1
227 -80 0 -80 0 0 -550z"/>
<path d="M5191 3885 c-61 -17 -105 -42 -138 -77 -85 -90 -91 -296 -11 -392 44
-54 105 -85 249 -126 79 -23 142 -48 164 -64 38 -30 57 -81 48 -130 -16 -81
-71 -110 -196 -105 -102 5 -129 20 -167 95 -14 27 -26 51 -27 53 -2 4 -111
-15 -147 -26 -39 -11 6 -132 76 -202 67 -66 129 -85 278 -86 117 0 129 2 186
28 34 16 76 43 92 60 70 73 99 212 67 322 -38 132 -84 163 -364 245 -101 30
-141 68 -141 137 0 85 47 123 150 123 96 0 148 -33 166 -105 6 -25 9 -27 48
-21 22 4 60 10 84 13 49 7 52 19 26 95 -22 65 -74 121 -136 148 -69 30 -226
37 -307 15z"/>
<path d="M8670 3356 l0 -526 90 0 90 0 0 200 0 200 103 0 103 0 96 -200 96
-200 100 0 100 0 -53 103 c-29 56 -80 155 -113 220 l-60 117 38 20 c90 46 143
150 143 280 0 138 -47 226 -151 277 l-57 28 -262 3 -263 3 0 -525z m486 335
c34 -15 45 -28 59 -65 21 -54 15 -127 -13 -166 -36 -49 -75 -60 -219 -60
l-133 0 0 155 0 155 133 0 c107 0 140 -4 173 -19z"/>
<path d="M11467 3813 c-2 -5 -15 -47 -28 -95 l-24 -88 -47 0 -48 0 0 -70 0
-70 45 0 45 0 0 -267 c0 -151 5 -284 10 -305 6 -21 26 -50 47 -68 36 -32 37
-32 122 -28 48 2 92 7 99 12 7 4 12 31 12 70 l0 62 -34 -4 c-47 -5 -73 12 -86
56 -5 20 -10 135 -10 255 l0 217 65 0 65 0 0 70 0 70 -65 0 -65 0 0 95 0 95
-49 0 c-28 0 -52 -3 -54 -7z"/>
<path d="M11975 3654 c-125 -32 -195 -115 -195 -235 0 -144 60 -206 253 -258
104 -28 133 -44 145 -80 26 -73 -26 -121 -131 -121 -72 0 -114 21 -133 66 -16
38 -18 39 -97 23 -66 -14 -69 -23 -36 -94 41 -86 136 -135 264 -135 194 0 310
113 292 287 -7 71 -46 136 -100 167 -23 13 -94 41 -158 60 -65 20 -122 42
-128 50 -24 29 -24 72 2 101 20 24 33 29 83 32 72 5 103 -10 127 -60 15 -29
23 -36 40 -33 12 3 44 8 71 11 48 7 48 7 42 38 -11 57 -57 118 -113 149 -43
24 -67 31 -130 33 -43 2 -87 2 -98 -1z"/>
<path d="M5962 3619 c-123 -61 -182 -185 -182 -384 0 -267 136 -429 347 -412
78 6 159 44 204 94 141 161 127 539 -24 669 -53 45 -115 64 -207 64 -66 0 -86
-4 -138 -31z m229 -145 c42 -40 59 -108 59 -234 0 -171 -40 -258 -125 -274
-87 -17 -148 54 -165 190 -22 172 19 315 100 347 35 14 101 -1 131 -29z"/>
<path d="M6846 3630 c-41 -20 -59 -40 -92 -104 l-21 -40 -8 78 -7 77 -76 -3
-77 -3 0 -57 c1 -32 2 -213 3 -403 l2 -345 79 0 79 0 4 263 c4 219 7 270 22
310 40 106 132 119 172 25 15 -37 18 -83 22 -320 l4 -278 78 0 78 0 5 263 c4
278 10 315 53 367 48 57 121 31 144 -51 6 -19 10 -157 10 -306 l0 -273 85 0
85 0 0 298 c0 236 -3 310 -15 357 -25 93 -77 150 -148 162 -86 14 -161 -31
-203 -121 -19 -40 -24 -46 -29 -30 -3 10 -16 39 -29 64 -40 80 -139 112 -220
70z"/>
<path d="M7829 3637 c-95 -36 -154 -101 -187 -207 -24 -78 -24 -312 1 -391 25
-83 73 -146 137 -183 50 -28 63 -31 140 -31 75 0 91 3 138 29 28 16 64 44 78
63 24 31 66 115 60 120 -1 2 -37 6 -79 11 -76 8 -78 8 -83 -15 -10 -38 -60
-73 -104 -73 -73 0 -122 68 -134 188 l-5 52 209 0 210 0 0 29 c0 58 -22 186
-40 234 -47 123 -117 178 -234 184 -44 2 -85 -2 -107 -10z m141 -132 c36 -19
59 -61 69 -126 l8 -49 -123 0 -124 0 0 38 c0 21 10 58 23 82 33 67 86 86 147
55z"/>
<path d="M10011 3628 c-55 -27 -96 -83 -124 -172 -32 -103 -32 -329 0 -431 24
-76 74 -145 124 -170 38 -20 142 -19 185 1 32 15 73 56 101 100 10 15 11 0 7
-81 -9 -163 -44 -225 -126 -225 -55 0 -94 23 -109 65 -7 19 -16 35 -21 35 -4
0 -41 -5 -83 -11 -84 -13 -87 -17 -56 -84 24 -52 65 -93 121 -119 36 -17 64
-21 140 -21 113 1 170 23 225 87 69 81 69 82 73 586 l3 453 -78 -3 -78 -3 -5
-65 c-5 -64 -5 -65 -18 -34 -17 39 -68 89 -105 103 -47 18 -128 13 -176 -11z
m209 -133 c111 -57 116 -429 6 -496 -73 -44 -144 -8 -172 88 -12 41 -15 86
-12 181 3 113 6 132 28 172 38 67 90 86 150 55z"/>
<path d="M9560 3225 l0 -405 80 0 80 0 0 405 0 405 -80 0 -80 0 0 -405z"/>
<path d="M830 2180 l0 -850 125 0 126 0 -3 680 c-2 374 0 673 4 663 4 -10 26
-99 48 -198 22 -99 95 -396 163 -660 l122 -480 103 -3 c56 -1 102 0 102 3 0 2
60 242 134 532 74 291 147 587 162 658 15 72 30 133 33 137 3 4 5 -294 3 -662
l-3 -670 125 0 126 0 0 850 0 850 -187 0 -188 0 -143 -583 c-79 -320 -146
-599 -149 -620 -3 -21 -9 -40 -13 -42 -4 -2 -17 46 -29 108 -18 90 -231 955
-272 1100 l-10 37 -189 0 -190 0 0 -850z"/>
<path d="M2470 2180 l0 -850 140 0 140 0 0 850 0 850 -140 0 -140 0 0 -850z"/>
<path d="M2900 2895 l0 -135 215 0 215 0 2 -712 3 -713 135 0 135 0 3 713 2
712 220 0 220 0 0 135 0 135 -575 0 -575 0 0 -135z"/>
<path d="M10933 1188 c-78 -38 -106 -344 -43 -468 38 -75 113 -89 170 -31 41
41 60 116 60 241 0 179 -43 271 -127 269 -21 0 -48 -5 -60 -11z"/>
<path d="M6130 1255 l0 -155 133 0 c151 0 188 12 221 70 28 48 28 139 0 177
-38 53 -75 63 -221 63 l-133 0 0 -155z"/>
<path d="M7051 1207 c-34 -16 -60 -65 -70 -126 l-8 -51 125 0 125 0 -6 51
c-13 108 -89 166 -166 126z"/>
<path d="M8411 1207 c-34 -16 -60 -65 -70 -126 l-8 -51 125 0 125 0 -6 51
c-13 108 -89 166 -166 126z"/>
<path d="M10251 1207 c-34 -16 -60 -65 -70 -126 l-8 -51 125 0 125 0 -6 51
c-13 108 -89 166 -166 126z"/>
</g>
</svg>
